<?xml version="1.0" encoding="UTF-8"?>
<svg id="a" data-name="Слой 1" xmlns="http://www.w3.org/2000/svg" width="500" height="93" viewBox="0 0 500 93">
  <defs>
    <style>
      .b {
        fill: #fa500f;
      }

      .c {
        fill: #e10500;
      }

      .d {
        fill: #ff8205;
      }

      .e {
        fill: gold;
      }

      .f {
        fill: #ffaf00;
      }
    </style>
  </defs>
  <path class="e" d="M18.52,0h18.52v18.6h-18.52V0ZM92.62,0h18.52v18.6h-18.52V0Z"/>
  <path class="f" d="M18.52,18.6h37.05v18.6H18.52v-18.6ZM74.09,18.6h37.05v18.6h-37.05v-18.6Z"/>
  <path class="d" d="M18.52,37.2h92.62v18.6H18.52v-18.6Z"/>
  <path class="b" d="M18.52,55.8h18.52v18.6h-18.52v-18.6ZM55.57,55.8h18.52v18.6h-18.52v-18.6ZM92.62,55.8h18.52v18.6h-18.52v-18.6Z"/>
  <path class="c" d="M0,74.4h55.57v18.6H0v-18.6ZM74.09,74.4h55.57v18.6h-55.57v-18.6Z"/>
  <path d="M166.71,74.4V18.6h16.79l10.08,38.06,9.97-38.06h16.83v55.8h-10.42V30.48l-11.03,43.92h-10.8l-10.99-43.92v43.92h-10.42ZM230.83,28.5v-9.9h10.65v9.9h-10.65ZM230.83,74.4v-40.42h10.65v40.42h-10.65ZM248.03,62.87l10.69-1.64c.45,2.08,1.38,3.66,2.77,4.74,2.53,2.23,9.62,2.05,12.05.1,1.51-1.04,1.93-3.53.64-4.87-.53-.51-1.72-.98-3.56-1.41-8.59-1.9-14.04-3.64-16.34-5.21-6.2-3.93-6.32-13.36-.64-17.93,4.51-4.64,20.13-4.59,25.09-.88,2.68,1.8,4.52,4.47,5.53,7.99l-10.05,1.86c-1.06-3.62-3.63-4.86-7.58-4.87-2.81,0-4.81.39-6.03,1.18-1.51.99-1.67,3.04-.15,4.11.96.71,4.28,1.71,9.95,3.01,5.67,1.29,9.63,2.88,11.88,4.76,5.11,4.37,4.14,13.23-1.29,17.51-5.35,5.18-20.74,5.25-26.7.65-3.2-2.23-5.29-5.27-6.27-9.1h0ZM329.76,74.4h-10.65v-40.42h9.89v5.75c1.69-2.71,3.22-4.5,4.57-5.37,3.52-2.21,8.06-1.38,11.62.72l-3.3,9.32c-4.81-3.21-9.87-2.09-11.24,3.96-1.2,3.49-.84,20.01-.89,26.03ZM357.11,46.31l-9.67-1.75c2.6-8.79,7.9-11.43,17.44-11.49,7.21.1,12.32.93,15.52,5.99.95,1.74,1.42,4.93,1.42,9.57.03,4.46-.46,16.71.4,20.34.34,1.69.98,3.5,1.91,5.42h-10.54c-.32-.7-1.05-3.32-1.4-4.42-3.53,3.44-7.61,5.33-12.47,5.33-7.55.15-13.39-4.53-13.38-11.95-.03-4.44,2.23-8.32,6.2-10.22,1.96-.95,4.78-1.78,8.47-2.49,4.98-.94,8.43-1.81,10.35-2.63v-1.07c0-2.06-.51-3.52-1.52-4.4-1.46-1.5-8.07-1.92-10.16-.19-1.06.75-1.92,2.06-2.58,3.94h0ZM371.37,54.99c-1.94.81-10.61,2.22-12.28,3.5-2.76,1.82-2.66,5.52-.42,7.65,2.61,2.54,6.85,1.89,9.74-.27,3.52-2.53,2.87-6.33,2.96-10.89h0ZM391.71,74.4V18.6h10.65v55.8h-10.65ZM483.79,74.4h-12.21l-4.85-12.67h-22.21l-4.59,12.67h-11.9l21.64-55.8h11.86l22.25,55.8h0ZM463.13,52.32l-7.66-20.71-7.5,20.71h15.16,0ZM488.78,74.4V18.6h11.22v55.8h-11.22ZM312.79,33.98v8.53h-7.28v16.29l.21,5.77c1.11,2.93,4.13,1.83,7.03.86l.91,8.3c-6.19,2.63-17.61,2.94-18.5-6.05-.25-1.38-.32-4.87-.34-8.87v-16.29h-4.89v-8.53h4.89v-8.03l10.69-6.24v14.27h7.28Z"/>
</svg>